<svg id="OBJECTS" xmlns="http://www.w3.org/2000/svg" viewBox="0 0 456.79 168.69"><defs><style>.cls-1{fill:#251e2e;}.cls-2{font-size:89px;font-family:Karla-Bold, Karla;font-weight:700;letter-spacing:-0.1em;}.cls-3{letter-spacing:-0.08em;}</style></defs><title>3528410</title><path class="cls-1" d="M219.19,320.76l48.91,22.48.12.05c28.27,12,40.87-14.54,41-14.81a3.3,3.3,0,0,0,.19-.49l37-113.61a4.64,4.64,0,0,0,.21-1.17,30.07,30.07,0,0,0-1.46-11.13,29.85,29.85,0,0,0-47.52-13.16l-34.67,25.66-48.29-27.33a29.77,29.77,0,0,0-47,15.91l-28,109A29.77,29.77,0,0,0,185,344.63m118.14-148.5.26-.2a20.67,20.67,0,0,1,34.12,16.23L300.84,324.89c-1.06,2.16-9.74,18.21-29,10.06l-44-20.23,55.89-39A29.45,29.45,0,0,0,297,252.15a29.45,29.45,0,0,0-11.25-24.58,4.52,4.52,0,0,0-.58-.39l-13.6-7.7Zm-22.76,38.78a20.68,20.68,0,0,1-1.75,33.27l-60.36,42.13-11.13-5.12a20.68,20.68,0,0,1-4.91-34.37l61.36-45.41Z" transform="translate(-138.62 -181.02)"/><text class="cls-2" transform="translate(225.13 119.34)">sken<tspan class="cls-3" x="166.16" y="0">n.</tspan></text></svg>